<?xml version="1.0" standalone="no"?>
<!DOCTYPE svg PUBLIC "-//W3C//DTD SVG 20010904//EN"
 "http://www.w3.org/TR/2001/REC-SVG-20010904/DTD/svg10.dtd">
<svg version="1.0" xmlns="http://www.w3.org/2000/svg"
 width="512.000000pt" height="512.000000pt" viewBox="0 0 512.000000 512.000000"
 preserveAspectRatio="xMidYMid meet">

<g transform="translate(0.000000,512.000000) scale(0.100000,-0.100000)"
fill="#000000" stroke="none">
<path d="M635 4862 c7 -26 34 -128 60 -227 25 -99 56 -214 67 -255 28 -106
331 -1260 435 -1657 l86 -333 314 0 c172 0 313 3 313 6 0 5 -100 221 -479
1033 -122 261 -220 476 -218 478 2 2 114 -98 248 -221 134 -123 248 -221 252
-219 9 5 157 298 157 310 0 5 -129 125 -287 268 -158 143 -434 393 -613 555
-179 163 -330 299 -336 303 -7 4 -7 -8 1 -41z"/>
<path d="M4400 4815 c-52 -46 -101 -97 -109 -112 -26 -49 -322 -685 -348 -748
-38 -90 -264 -578 -354 -762 -104 -212 -369 -783 -369 -794 0 -5 141 -9 314
-9 l314 0 7 33 c4 17 20 79 35 137 15 58 65 247 110 420 45 173 118 450 161
615 43 165 93 354 110 420 17 66 53 201 79 300 102 383 151 577 147 581 -2 2
-46 -34 -97 -81z"/>
<path d="M2181 3259 l-53 -181 23 -23 c77 -73 410 -375 414 -375 3 0 5 107 4
238 l-1 237 -158 143 c-87 78 -162 142 -167 142 -4 0 -32 -82 -62 -181z"/>
<path d="M0 1005 l0 -1005 2560 0 2560 0 0 1005 0 1005 -2560 0 -2560 0 0
-1005z m1388 515 c99 -44 152 -133 152 -256 0 -71 -21 -126 -69 -178 -21 -23
-23 -30 -11 -34 37 -13 89 -79 105 -137 47 -162 -22 -337 -157 -395 -45 -19
-65 -22 -152 -18 -78 3 -110 9 -142 26 -92 48 -150 140 -161 256 l-6 66 72 0
c70 0 71 -1 71 -26 0 -134 100 -223 220 -194 89 21 136 94 128 197 -8 98 -63
146 -174 151 l-75 4 3 62 3 61 60 6 c102 9 145 54 145 149 0 98 -48 150 -141
150 -53 0 -62 -3 -92 -33 -35 -36 -57 -93 -57 -151 l0 -36 -70 0 c-68 0 -70 1
-70 26 0 52 32 163 60 207 74 116 223 157 358 97z m770 -312 l2 -327 63 -3 62
-3 0 -65 0 -65 -62 -3 -63 -3 0 -109 0 -110 -65 0 -65 0 0 115 0 115 -195 0
-195 0 0 69 0 69 196 308 c108 170 204 317 212 327 12 13 27 17 61 15 l46 -3
3 -327z m490 105 l2 -213 215 0 215 0 2 213 3 212 70 0 70 0 0 -510 0 -510
-70 0 -70 0 -3 228 -2 227 -215 0 -215 0 -2 -227 -3 -228 -70 0 -70 0 -3 500
c-1 275 0 506 3 513 3 9 24 12 72 10 l68 -3 3 -212z m1202 193 c120 -38 210
-129 252 -257 29 -86 31 -330 5 -428 -37 -136 -108 -230 -211 -277 -77 -35
-164 -45 -346 -42 l-165 3 -3 500 c-1 275 0 506 3 514 8 21 390 10 465 -13z"/>
<path d="M1903 1072 l-122 -187 121 -3 c66 -1 122 -1 125 1 2 2 2 88 1 190
l-3 185 -122 -186z"/>
<path d="M3528 1384 c-5 -4 -8 -173 -8 -376 l0 -368 109 0 c142 0 199 18 263
81 67 67 93 153 92 309 0 143 -18 209 -74 272 -57 65 -100 80 -250 85 -69 3
-128 2 -132 -3z"/>
</g>
</svg>
