<?xml version="1.0" standalone="no"?>
<!DOCTYPE svg PUBLIC "-//W3C//DTD SVG 20010904//EN"
 "http://www.w3.org/TR/2001/REC-SVG-20010904/DTD/svg10.dtd">
<svg version="1.0" xmlns="http://www.w3.org/2000/svg"
 width="1098.000000pt" height="522.000000pt" viewBox="0 0 1098.000000 522.000000"
 preserveAspectRatio="xMidYMid meet">

<g transform="translate(0.000000,522.000000) scale(0.100000,-0.100000)"
fill="#000000" stroke="none">
<path d="M2680 4969 c-264 -10 -751 -45 -905 -65 -446 -57 -830 -165 -1047
-295 -89 -53 -98 -62 -158 -152 -138 -207 -237 -649 -280 -1252 -16 -223 -17
-837 -2 -1010 24 -260 63 -588 93 -780 67 -426 138 -609 284 -727 204 -166
623 -282 1232 -343 165 -16 789 -49 1214 -64 243 -9 771 -1 929 14 30 2 102 7
160 10 162 8 241 15 425 36 623 73 1096 194 1258 321 267 211 404 928 400
2108 -2 782 -118 1446 -300 1713 -39 58 -58 75 -137 122 -194 116 -498 200
-1006 279 -465 73 -1462 112 -2160 85z m-639 -643 c59 -25 108 -90 133 -177
14 -48 16 -135 14 -679 l-3 -625 -162 -3 -163 -2 0 564 c0 628 3 605 -64 574
-18 -9 -112 -68 -209 -133 l-177 -117 0 -444 0 -444 -167 2 -168 3 -5 530 -5
530 -23 38 c-28 45 -71 69 -115 65 -27 -3 -33 1 -35 20 -3 17 8 34 35 60 63
59 330 233 367 239 75 12 106 -38 115 -183 l6 -101 120 75 c66 41 163 102 215
135 135 86 214 105 291 73z m1749 -6 c47 -24 85 -72 111 -140 18 -48 19 -83
19 -695 l0 -645 -165 0 -165 0 -2 573 -3 572 -27 -2 c-16 -1 -107 -54 -217
-127 l-191 -126 -2 -442 -3 -443 -167 -3 -168 -2 0 503 c0 554 -2 577 -59 631
-23 22 -40 29 -70 29 -80 0 -77 46 7 109 103 77 309 210 334 215 83 16 121
-44 122 -193 l1 -91 60 37 c97 60 266 164 324 200 102 64 189 77 261 40z
m1083 2 c46 -51 47 -63 47 -590 l0 -500 35 -26 c132 -101 270 -101 354 1 l31
38 0 475 0 475 51 35 c146 100 163 110 194 110 44 0 82 -40 90 -93 3 -23 5
-276 3 -562 l-3 -520 -23 -44 c-77 -146 -232 -243 -435 -272 -238 -35 -516 90
-608 272 l-29 58 0 348 c0 201 -4 363 -10 384 -13 47 -39 69 -97 84 -37 9 -50
18 -57 37 -5 14 -7 32 -4 40 3 8 73 59 154 115 82 55 167 112 188 127 45 30
96 34 119 8z m805 -1919 l-3 -208 -1847 -3 -1848 -2 0 -96 0 -96 411 7 c225 4
1058 4 1850 0 l1440 -8 -3 -412 -3 -413 -31 -44 c-94 -130 -338 -256 -664
-342 -553 -145 -1260 -214 -1917 -187 -832 33 -1485 150 -1858 331 -132 64
-210 122 -267 198 l-48 63 0 125 0 124 545 0 545 0 0 -74 c0 -73 0 -74 40
-109 244 -221 1171 -309 1970 -187 303 46 483 105 563 186 l37 37 0 149 0 148
-1850 0 -1850 0 0 510 0 510 2395 0 2395 0 -2 -207z"/>
<path d="M9255 2094 c-33 -3 -127 -11 -210 -19 -129 -13 -152 -18 -167 -36
-17 -20 -18 -82 -18 -983 0 -804 2 -965 14 -981 19 -27 88 -33 442 -41 501
-11 791 32 1051 156 128 60 179 95 272 184 170 164 257 360 281 631 30 344
-91 653 -325 832 -159 121 -354 196 -623 239 -95 15 -572 27 -717 18z m700
-64 c419 -57 717 -242 845 -524 58 -127 75 -221 74 -411 -1 -151 -4 -181 -28
-270 -149 -563 -675 -798 -1666 -746 -124 7 -235 15 -247 18 l-23 5 0 953 0
953 28 5 c25 5 205 22 327 31 99 7 612 -3 690 -14z"/>
<path d="M9483 1733 l-63 -4 0 -663 c0 -596 2 -664 16 -670 29 -11 239 -6 334
9 379 57 572 288 573 685 0 212 -46 345 -162 461 -148 148 -353 201 -698 182z
m397 -68 c203 -50 338 -176 396 -370 25 -81 25 -309 1 -409 -41 -165 -141
-293 -287 -364 -110 -55 -191 -72 -377 -79 l-153 -6 0 620 c0 341 3 623 8 627
13 14 342 -1 412 -19z"/>
<path d="M6800 2083 c-8 -3 -23 -12 -32 -21 -17 -14 -18 -74 -18 -997 l0 -982
21 -19 c20 -18 39 -19 279 -19 240 0 259 1 279 19 21 19 21 25 21 413 l0 393
370 0 370 0 0 -389 c0 -368 1 -390 19 -412 19 -24 20 -24 267 -27 265 -3 293
1 313 44 16 35 16 1923 0 1958 -20 43 -48 47 -313 44 -247 -3 -248 -3 -267
-27 -18 -22 -19 -44 -19 -382 l0 -359 -370 0 -370 0 0 363 c0 357 0 364 -21
383 -19 17 -41 19 -268 21 -135 1 -253 -1 -261 -4z m508 -430 l2 -383 415 0
415 0 2 383 3 382 250 0 250 0 0 -970 0 -970 -250 0 -250 0 -3 413 -2 412
-415 0 -415 0 -2 -412 -3 -413 -252 -3 -253 -2 0 968 c0 533 3 972 7 976 4 3
117 5 252 4 l246 -3 3 -382z"/>
</g>
</svg>
