<?xml version="1.0" standalone="no"?>
<!DOCTYPE svg PUBLIC "-//W3C//DTD SVG 20010904//EN"
 "http://www.w3.org/TR/2001/REC-SVG-20010904/DTD/svg10.dtd">
<svg version="1.0" xmlns="http://www.w3.org/2000/svg"
 width="478.000000pt" height="416.000000pt" viewBox="0 0 478.000000 416.000000"
 preserveAspectRatio="xMidYMid meet">

<g transform="translate(0.000000,416.000000) scale(0.100000,-0.100000)"
fill="#000000" stroke="none">
<path d="M2986 3908 c-21 -30 -20 -50 3 -80 19 -24 19 -25 -35 -278 -30 -140
-58 -258 -62 -261 -17 -14 -133 -42 -141 -33 -11 13 -228 278 -285 348 -34 42
-44 62 -37 69 18 18 13 62 -9 82 -27 25 -70 22 -93 -6 -32 -40 -3 -99 49 -99
26 0 26 1 204 -250 93 -131 129 -191 126 -205 -3 -11 -11 -47 -18 -79 l-14
-60 -224 -62 c-263 -73 -306 -92 -377 -161 -79 -77 -115 -159 -121 -280 l-5
-95 -38 6 c-71 11 -89 23 -89 56 0 17 -6 46 -14 65 l-15 34 142 200 c132 187
144 201 173 201 59 0 88 72 42 104 -48 34 -93 8 -93 -53 0 -37 -12 -54 -153
-226 -84 -102 -156 -185 -160 -185 -4 0 -32 9 -62 19 l-55 18 -22 99 c-12 54
-35 159 -50 232 -26 128 -26 133 -9 162 15 26 15 34 4 57 -15 31 -54 41 -88
23 -32 -17 -28 -75 8 -97 15 -9 28 -18 30 -19 4 -3 62 -413 62 -440 0 -14 -20
-44 -50 -74 l-50 -51 -217 61 c-202 57 -224 62 -298 58 -158 -9 -279 -97 -335
-245 -18 -48 -22 -98 -35 -471 -8 -229 -17 -460 -19 -513 -3 -53 -1 -123 5
-155 32 -171 168 -297 337 -311 37 -3 135 2 217 11 83 8 355 36 605 61 268 27
476 52 505 62 69 22 113 52 168 112 53 60 84 134 95 229 4 37 12 67 17 67 44
0 297 -29 300 -35 2 -4 -60 -83 -139 -176 -79 -93 -142 -170 -141 -172 2 -2
100 31 219 73 l215 77 246 -77 c136 -42 248 -75 250 -73 2 2 -55 71 -126 153
l-129 150 38 3 c20 1 120 -6 222 -16 219 -22 294 -17 375 23 113 58 201 174
223 296 13 67 -22 1116 -39 1199 -34 168 -170 294 -344 321 -79 13 -94 10
-389 -73 -210 -59 -220 -61 -230 -43 -14 25 -56 67 -81 81 -18 10 -18 14 -1
140 10 71 24 176 32 234 20 156 23 170 39 170 23 0 55 37 55 63 0 54 -84 79
-114 35z m699 -857 c50 -22 93 -71 99 -114 7 -41 36 -875 36 -1023 0 -99 -3
-115 -22 -144 -33 -48 -70 -72 -119 -77 -24 -2 -296 21 -604 51 -307 31 -564
56 -571 56 -8 0 -13 43 -16 148 -6 178 -23 233 -99 316 -46 51 -151 116 -186
116 -10 0 -13 23 -13 98 0 111 19 165 68 200 17 13 169 61 368 117 1121 318
992 287 1059 256z m-2203 -701 c253 -72 461 -130 463 -130 2 0 5 -75 7 -167 3
-165 4 -169 35 -235 17 -37 52 -89 77 -116 46 -49 148 -112 181 -112 26 0 17
-129 -11 -167 -45 -60 -41 -59 -670 -124 -324 -33 -612 -59 -640 -57 -56 5
-92 27 -121 73 -15 24 -18 48 -16 125 2 52 7 283 12 512 11 438 12 449 58 490
34 31 86 48 126 43 21 -3 246 -64 499 -135z m776 -387 c4 -110 3 -116 -14
-102 -37 30 -54 90 -54 189 l0 95 33 -33 c32 -32 32 -33 35 -149z"/>
<path d="M1272 2148 c-6 -8 -11 -134 -13 -337 -3 -308 -3 -324 16 -337 29 -21
55 -17 110 18 28 18 146 89 264 158 221 129 240 146 218 190 -7 14 -111 80
-267 171 -255 148 -302 168 -328 137z"/>
</g>
</svg>
