<?xml version="1.0" standalone="no"?>
<!DOCTYPE svg PUBLIC "-//W3C//DTD SVG 20010904//EN"
 "http://www.w3.org/TR/2001/REC-SVG-20010904/DTD/svg10.dtd">
<svg version="1.0" xmlns="http://www.w3.org/2000/svg"
 width="640.000000pt" height="451.000000pt" viewBox="0 0 640.000000 451.000000"
 preserveAspectRatio="xMidYMid meet">

<g transform="translate(0.000000,451.000000) scale(0.100000,-0.100000)"
fill="#000000" stroke="none">
<path d="M3095 4117 c-281 -147 -478 -390 -554 -680 -50 -192 -50 -313 0 -507
52 -203 133 -345 275 -480 155 -147 315 -225 533 -260 72 -12 290 -15 345 -5
42 8 44 2 17 -58 -11 -23 -31 -69 -46 -102 -104 -236 -334 -463 -570 -563
-150 -63 -228 -77 -430 -76 -116 1 -208 6 -260 16 -44 9 -81 14 -83 13 -5 -5
152 -94 228 -129 100 -45 202 -79 330 -108 93 -20 130 -23 325 -23 202 1 229
3 330 27 202 48 373 120 531 226 474 318 738 859 693 1422 -16 208 -68 398
-156 574 -43 88 -145 250 -162 261 -5 3 -3 -16 5 -43 58 -190 -2 -410 -150
-557 -152 -150 -357 -207 -561 -155 -360 92 -542 489 -375 820 77 153 230 268
407 305 82 18 130 19 207 4 32 -6 60 -8 62 -6 3 2 -26 20 -64 40 -57 30 -87
38 -187 51 -155 20 -383 36 -510 36 -98 -1 -102 -1 -180 -43z"/>
<path d="M2750 605 c-11 -13 -36 -15 -169 -9 -165 7 -346 -5 -473 -31 -92 -19
-210 -76 -238 -115 l-21 -30 159 0 c146 0 160 2 177 20 29 32 110 51 245 57
128 6 250 -7 299 -30 36 -17 39 -51 6 -73 -52 -34 -145 -48 -441 -64 -254 -13
-394 -53 -430 -122 -20 -39 -18 -53 16 -91 62 -71 202 -106 420 -106 119 0
213 8 225 20 2 2 -1 23 -7 45 l-11 41 -147 -5 c-142 -4 -148 -4 -169 17 -28
28 -24 58 10 84 21 15 52 21 151 28 68 5 186 18 262 29 76 11 142 18 147 14 5
-3 9 -66 9 -140 l0 -134 160 0 160 0 0 221 0 221 -27 27 c-16 15 -37 32 -47
38 -18 10 -17 13 19 57 l37 46 -155 0 c-126 0 -157 -3 -167 -15z"/>
<path d="M815 594 c-221 -26 -409 -89 -476 -160 l-22 -24 141 0 c136 0 143 1
199 29 89 45 138 55 268 55 97 1 133 -3 191 -21 250 -79 260 -248 19 -334
-129 -45 -354 -35 -468 22 -43 22 -97 66 -97 81 0 4 70 8 155 8 l155 0 0 45 0
45 -304 0 c-296 0 -304 0 -309 -20 -10 -37 14 -91 58 -135 160 -161 620 -224
974 -134 145 37 279 117 317 190 62 121 -65 247 -317 313 -143 38 -352 55
-484 40z"/>
<path d="M3370 305 l0 -295 165 0 165 0 0 51 c0 45 2 50 18 44 156 -67 344
-99 537 -93 142 5 200 20 272 69 75 52 83 84 83 317 l0 202 -160 0 -160 0 0
-205 c0 -204 0 -206 -24 -230 -39 -39 -97 -50 -261 -50 -136 0 -155 2 -203 24
-29 13 -64 37 -77 53 -25 29 -25 32 -25 219 l0 189 -165 0 -165 0 0 -295z"/>
<path d="M4900 305 l0 -295 160 0 160 0 0 184 0 184 26 32 c15 17 43 39 64 50
113 58 411 48 481 -16 18 -16 19 -33 19 -226 l0 -208 160 0 160 0 0 208 c0
199 -1 208 -23 246 -29 46 -93 91 -161 111 -157 47 -474 19 -666 -58 l-60 -25
0 54 0 54 -160 0 -160 0 0 -295z"/>
</g>
</svg>
