<?xml version="1.0" standalone="no"?>
<!DOCTYPE svg PUBLIC "-//W3C//DTD SVG 20010904//EN"
 "http://www.w3.org/TR/2001/REC-SVG-20010904/DTD/svg10.dtd">
<svg version="1.0" xmlns="http://www.w3.org/2000/svg"
 width="512.000000pt" height="511.000000pt" viewBox="0 0 512.000000 511.000000"
 preserveAspectRatio="xMidYMid meet">

<g transform="translate(0.000000,511.000000) scale(0.100000,-0.100000)"
fill="#000000" stroke="none">
<path d="M130 3180 l0 -560 560 0 560 0 0 560 0 560 -560 0 -560 0 0 -560z
m277 468 c5 -7 70 -166 143 -353 73 -187 134 -341 134 -342 1 -1 62 152 135
340 73 188 138 348 143 355 11 13 173 18 181 5 3 -5 8 -221 12 -480 l7 -473
-101 0 -101 0 0 228 -1 227 -60 -155 c-33 -85 -72 -186 -87 -225 l-28 -70 -98
0 -99 0 -88 225 -88 225 -1 -227 0 -228 -100 0 -100 0 0 473 c0 261 3 477 7
480 12 13 180 8 190 -5z"/>
<path d="M1370 3180 l0 -560 565 0 565 0 0 560 0 560 -565 0 -565 0 0 -560z
m695 478 c73 -18 159 -70 221 -132 99 -99 144 -210 144 -352 0 -276 -219 -494
-495 -494 -275 0 -495 220 -495 494 0 143 45 253 145 353 128 128 304 176 480
131z"/>
<path d="M1879 3490 c-99 -17 -182 -79 -229 -172 -25 -51 -30 -73 -30 -133 0
-93 21 -153 77 -215 62 -69 129 -102 218 -108 262 -16 426 273 280 494 -66
100 -194 154 -316 134z"/>
<path d="M2620 2555 l0 -1185 1185 0 1185 0 2 1185 3 1185 -1187 0 -1188 0 0
-1185z m753 820 c272 -57 458 -319 419 -589 -18 -123 -59 -197 -203 -371 -69
-82 -160 -193 -202 -245 l-78 -95 290 -5 289 -5 -150 -173 -149 -172 -432 2
-432 3 -3 77 -3 77 363 423 c199 233 371 440 382 462 12 25 19 59 19 96 0 221
-301 295 -407 101 -49 -90 -29 -201 49 -269 l38 -34 -35 -36 c-19 -20 -67 -72
-108 -115 l-74 -77 -44 42 c-107 103 -163 232 -163 380 -1 210 107 386 294
478 118 58 218 71 340 45z m1119 1 c276 -59 462 -325 418 -601 -21 -135 -48
-175 -425 -632 l-348 -423 -213 0 c-118 0 -214 2 -214 5 0 3 117 143 261 311
143 168 259 307 257 308 -2 1 -33 17 -71 35 -76 36 -170 119 -216 188 -174
262 -74 622 210 762 120 59 219 72 341 47z"/>
<path d="M4282 3044 c-129 -64 -152 -245 -45 -346 136 -129 363 -31 363 157 0
165 -168 264 -318 189z"/>
<path d="M128 1930 l2 -560 560 0 560 0 0 560 0 560 -562 0 -563 0 3 -560z
m557 139 l280 -340 3 341 2 341 93 -3 92 -3 0 -475 0 -475 -91 -3 -91 -3 -279
339 -279 339 -5 -336 -5 -336 -90 0 -90 0 -3 478 -2 477 92 0 93 0 280 -341z"/>
<path d="M1380 1930 l0 -560 555 0 555 0 0 560 0 560 -555 0 -555 0 0 -560z
m679 485 c193 -51 342 -216 372 -413 42 -282 -174 -549 -461 -569 -260 -19
-492 169 -531 429 -36 243 126 486 368 553 65 18 186 18 252 0z"/>
<path d="M1872 2240 c-203 -42 -310 -265 -218 -454 50 -103 137 -157 261 -164
101 -5 172 19 234 80 123 120 130 312 17 445 -58 68 -198 112 -294 93z"/>
</g>
</svg>
