<svg id="Group_10240" data-name="Group 10240" xmlns="http://www.w3.org/2000/svg" xmlns:xlink="http://www.w3.org/1999/xlink" width="247.878" height="200" viewBox="0 0 247.878 200">
  <defs>
    <clipPath id="clip-path">
      <rect id="Rectangle_6527" data-name="Rectangle 6527" width="247.878" height="200" fill="none"/>
    </clipPath>
    <clipPath id="clip-path-2">
      <path id="Path_23173" data-name="Path 23173" d="M194.156,5.58c-21.884,1.323-39.443,3.895-39.371,5.77.108,1.522,12.554,2.013,29.455,1.36l-.742,3.769a290.963,290.963,0,0,0-33.179,2.195c-8.391,1.175-11.315,2.308-11.538,2.433a2.324,2.324,0,0,0-1.2,1.164A82.69,82.69,0,0,0,133.9,32.755c-2.265,7.635-5.494,20.094-9.4,39.815-6.961,35.215-7.4,51.142-7.4,54.231v.593a2.274,2.274,0,0,0,.868,1.715c.247.21,5.308,4.235,17.353,8.187,12,3.989,31.03,7.87,59.055,7.87,28.009,0,47.015-3.88,59.035-7.87,12.053-3.953,17.153-7.977,17.333-8.187a2.12,2.12,0,0,0,.884-1.686V126.8c0-3.12-.371-19.016-7.389-54.231-3.912-19.721-7.163-32.18-9.432-39.815-.4-1.377-.783-2.582-1.125-3.65v-1.23h-.406a56.6,56.6,0,0,0-2.106-5.6,2.339,2.339,0,0,0-1.212-1.164c-.256-.126-3.153-1.259-11.558-2.433a289.194,289.194,0,0,0-33.142-2.195l-1.041-4.985c17.2-1.432,29.808-3.486,29.75-5.067-.072-1.092-6.4-1.662-16.1-1.662-6.636,0-14.848.267-23.714.815" transform="translate(-117.101 -4.765)" fill="none"/>
    </clipPath>
  </defs>
  <g id="Group_10235" data-name="Group 10235">
    <g id="Group_10234" data-name="Group 10234" clip-path="url(#clip-path)">
      <path id="Path_23126" data-name="Path 23126" d="M260.735,73.759c-3.992-20.257-7.311-33.068-9.619-40.909A87.077,87.077,0,0,0,247.4,22.077a2.387,2.387,0,0,0-1.244-1.191c-.254-.132-3.213-1.3-11.8-2.508a292.787,292.787,0,0,0-33.8-2.254l-1.075-5.115C217.05,9.531,229.9,7.415,229.853,5.8c-.13-1.892-18.361-2.254-40.625-.872C166.9,6.29,148.99,8.938,149.068,10.846c.105,1.573,12.807,2.079,30.053,1.406l-.755,3.872a294.909,294.909,0,0,0-33.855,2.254c-8.56,1.208-11.544,2.376-11.776,2.508a2.367,2.367,0,0,0-1.22,1.191,84.445,84.445,0,0,0-3.757,10.773c-2.308,7.841-5.6,20.652-9.6,40.909-7.1,36.178-7.538,52.546-7.538,55.727v.614a2.358,2.358,0,0,0,.88,1.762c.255.2,5.419,4.342,17.707,8.393,12.245,4.107,31.657,8.09,60.246,8.09s47.967-3.983,60.228-8.09c12.294-4.051,17.5-8.191,17.687-8.393a2.238,2.238,0,0,0,.913-1.745v-.631c0-3.2-.4-19.55-7.551-55.727M115.368,128.8a83.075,83.075,0,0,0,8.316,4.318c-2.318-.99-4.168-1.9-5.6-2.671a25.224,25.224,0,0,1-2.718-1.647" transform="translate(-63.784 -2.358)" fill="#fff"/>
      <path id="Path_23127" data-name="Path 23127" d="M213.426,0h0c16.177,0,20.2,1.083,20.506,5.516.092,2.823.166,5.139-13.891,7.328,5.485.378,10.457.872,14.88,1.481,7.577,1.066,11.8,2.244,13.122,2.93a6.317,6.317,0,0,1,3.122,3.217,103.061,103.061,0,0,1,3.871,11.217c3.165,10.751,6.431,24.637,9.71,41.278,7.078,35.788,7.628,52.307,7.628,56.518a6.661,6.661,0,0,1-2.488,5.6c-.395.5-6.256,4.878-18.922,9.052-11.287,3.781-31.139,8.3-61.507,8.3-30.411,0-50.255-4.515-61.547-8.3-12.236-4.034-17.924-8.254-18.939-9.059a6.406,6.406,0,0,1-2.427-4.691c-.01-3.857.357-20.5,7.6-57.411,3.331-16.87,6.59-30.756,9.687-41.276,2.281-7.554,3.732-10.93,4.1-11.6a6.208,6.208,0,0,1,3.089-2.929c.925-.54,5.125-1.743,12.916-2.843q1.119-.152,2.282-.3a4.146,4.146,0,0,1-1.234-2.915c-.149-3.6-.312-7.567,43.992-10.275C197.86.292,206.315,0,213.426,0Zm30.536,24.434a67.164,67.164,0,0,0-10.168-2.008,293.217,293.217,0,0,0-33.309-2.215l-3.255-.062L194.823,8.7q-2.635.135-5.341.3-2.92.178-5.636.377l-2.1,10.766-3.3.063a296.593,296.593,0,0,0-33.381,2.217,67.132,67.132,0,0,0-10.114,2c-.5,1.206-1.6,4.062-3.276,9.6-3.018,10.255-6.217,23.9-9.5,40.519-6.853,34.905-7.427,50.971-7.459,54.591l.159.108,2.656-3.925a80.549,80.549,0,0,0,7.87,4.077l-1.93,4.341c1.991.847,4.323,1.739,7.022,2.629,10.735,3.6,29.659,7.885,58.966,7.885,29.266,0,48.2-4.284,58.929-7.878,9.42-3.1,14.324-6.2,15.8-7.231-.08-4.983-.872-21.257-7.465-54.594-3.232-16.4-6.438-30.041-9.531-40.548C245.674,28.873,244.584,25.943,243.963,24.435Z" transform="translate(-63.784 -2.358)" fill="#fff"/>
      <path id="Path_23128" data-name="Path 23128" d="M25.437,413.937,20.691,396.03h-.1l-4.536,17.907H8.461L0,387.252H7.738l4.907,18.118h.105l4.429-18.118h7.128l4.548,18.064h.095l4.908-18.064h7.534l-8.416,26.686Z" transform="translate(0 -223.283)" fill="#fff"/>
      <path id="Path_23129" data-name="Path 23129" d="M104.1,393.848a12.162,12.162,0,0,1,7.124-7.282,15.234,15.234,0,0,1,5.667-.993,15.475,15.475,0,0,1,5.709.993,12.2,12.2,0,0,1,7.154,7.282,17.682,17.682,0,0,1,0,11.591,12.74,12.74,0,0,1-2.792,4.414,12.329,12.329,0,0,1-4.362,2.8,15.777,15.777,0,0,1-5.709.983,15.531,15.531,0,0,1-5.667-.983,12.314,12.314,0,0,1-4.346-2.8,12.678,12.678,0,0,1-2.778-4.414,17.546,17.546,0,0,1,0-11.591m6.656,8.931a8.357,8.357,0,0,0,1.061,2.743,5.6,5.6,0,0,0,1.982,1.927,6.024,6.024,0,0,0,3.091.719,6.15,6.15,0,0,0,3.126-.719,5.592,5.592,0,0,0,2.018-1.927,8.44,8.44,0,0,0,1.053-2.743,15.825,15.825,0,0,0,.309-3.122,16.23,16.23,0,0,0-.309-3.151,7.876,7.876,0,0,0-1.053-2.726,5.98,5.98,0,0,0-2.018-1.956,6.111,6.111,0,0,0-3.126-.735,5.539,5.539,0,0,0-5.073,2.691,7.8,7.8,0,0,0-1.061,2.726,15.941,15.941,0,0,0-.313,3.151,15.544,15.544,0,0,0,.313,3.122" transform="translate(-59.456 -222.314)" fill="#fff"/>
      <path id="Path_23130" data-name="Path 23130" d="M186.515,386.284v4.956h.1a8.539,8.539,0,0,1,1.39-2.291,8.954,8.954,0,0,1,2.015-1.81,9.792,9.792,0,0,1,2.422-1.164,8.647,8.647,0,0,1,2.689-.4,5.884,5.884,0,0,1,1.6.243v6.817c-.342-.066-.752-.127-1.234-.173a12.227,12.227,0,0,0-1.39-.082,7.905,7.905,0,0,0-3.406.666,6.068,6.068,0,0,0-2.255,1.832,7.307,7.307,0,0,0-1.207,2.7,14.628,14.628,0,0,0-.36,3.369V412.97h-7.334V386.284Z" transform="translate(-103.521 -222.315)" fill="#fff"/>
      <path id="Path_23131" data-name="Path 23131" d="M237.043,363.253v19.77l9.232-9.609h8.678l-10.058,9.815,11.2,16.871h-8.879l-7.33-11.925-2.837,2.737V400.1h-7.33V363.253Z" transform="translate(-132.449 -209.446)" fill="#fff"/>
      <path id="Path_23132" data-name="Path 23132" d="M307.389,386.283v3.4h.107a8.162,8.162,0,0,1,3.409-3.145,10.445,10.445,0,0,1,4.544-.97,11.514,11.514,0,0,1,5.42,1.179,11.158,11.158,0,0,1,3.769,3.153,13.119,13.119,0,0,1,2.217,4.562,20.285,20.285,0,0,1,.725,5.448,18.318,18.318,0,0,1-.725,5.158,12.919,12.919,0,0,1-2.195,4.383A10.9,10.9,0,0,1,321,412.507a11.154,11.154,0,0,1-5.143,1.134,10.326,10.326,0,0,1-4.567-1.01,8.643,8.643,0,0,1-3.442-2.972h-.1v12.655h-7.32V386.283Zm9.529,21.165a5.907,5.907,0,0,0,1.968-1.882,8.03,8.03,0,0,0,1.053-2.714,16.168,16.168,0,0,0,.307-3.146,14.884,14.884,0,0,0-.338-3.153,8.339,8.339,0,0,0-1.1-2.759,6.469,6.469,0,0,0-1.993-1.97,5.651,5.651,0,0,0-2.972-.736,5.8,5.8,0,0,0-3.023.736,6.166,6.166,0,0,0-1.96,1.956,8.1,8.1,0,0,0-1.059,2.726,16.443,16.443,0,0,0-.307,3.2,14.891,14.891,0,0,0,.336,3.146,8.366,8.366,0,0,0,1.078,2.714,5.714,5.714,0,0,0,1.995,1.882,5.835,5.835,0,0,0,2.994.719,5.769,5.769,0,0,0,3.019-.719" transform="translate(-173.222 -222.314)" fill="#fff"/>
      <path id="Path_23133" data-name="Path 23133" d="M373.936,393.848a12.2,12.2,0,0,1,7.122-7.282,15.244,15.244,0,0,1,5.677-.993,15.472,15.472,0,0,1,5.706.993,12.212,12.212,0,0,1,7.151,7.282,17.784,17.784,0,0,1,0,11.591,12.71,12.71,0,0,1-2.792,4.414,12.2,12.2,0,0,1-4.358,2.8,15.774,15.774,0,0,1-5.706.983,15.541,15.541,0,0,1-5.677-.983,12.269,12.269,0,0,1-4.34-2.8,12.749,12.749,0,0,1-2.782-4.414,17.582,17.582,0,0,1,0-11.591m6.66,8.931a8.443,8.443,0,0,0,1.055,2.743,5.671,5.671,0,0,0,1.982,1.927,6.085,6.085,0,0,0,3.1.719,6.2,6.2,0,0,0,3.122-.719,5.655,5.655,0,0,0,2.017-1.927,8.777,8.777,0,0,0,1.053-2.743,15.361,15.361,0,0,0,.313-3.122,15.752,15.752,0,0,0-.313-3.151,8.171,8.171,0,0,0-1.053-2.726,6.053,6.053,0,0,0-2.017-1.956,6.164,6.164,0,0,0-3.122-.735,5.539,5.539,0,0,0-5.084,2.691,7.878,7.878,0,0,0-1.055,2.726,15.781,15.781,0,0,0-.311,3.151,15.39,15.39,0,0,0,.311,3.122" transform="translate(-215.038 -222.314)" fill="#fff"/>
      <path id="Path_23134" data-name="Path 23134" d="M447.561,363.253h7.328v6.04h-7.328Zm7.328,36.847h-7.328V373.415h7.328Z" transform="translate(-258.056 -209.446)" fill="#fff"/>
      <path id="Path_23135" data-name="Path 23135" d="M485.478,386.284V390h.171a8.355,8.355,0,0,1,3.606-3.373,10.24,10.24,0,0,1,4.546-1.053,12.493,12.493,0,0,1,4.82.789,7.161,7.161,0,0,1,2.967,2.219,8.8,8.8,0,0,1,1.529,3.462,22.121,22.121,0,0,1,.427,4.511V412.97h-7.32V397.9a9.3,9.3,0,0,0-1.034-4.923,3.976,3.976,0,0,0-3.657-1.632,5.075,5.075,0,0,0-4.336,1.78c-.9,1.2-1.358,3.145-1.358,5.858v13.99h-7.324V386.284Z" transform="translate(-275.904 -222.315)" fill="#fff"/>
      <path id="Path_23136" data-name="Path 23136" d="M562.094,376.353v4.91H556.73V394.47a2.48,2.48,0,0,0,3.091,3.1c.41,0,.81-.021,1.2-.05a10.756,10.756,0,0,0,1.078-.161v5.681a19.526,19.526,0,0,1-2.057.212c-.756.027-1.494.052-2.219.052a20.921,20.921,0,0,1-3.231-.237,7.629,7.629,0,0,1-2.685-.907,4.721,4.721,0,0,1-1.828-1.908,6.678,6.678,0,0,1-.672-3.245V381.263h-4.441v-4.91H549.4v-8h7.328v8Z" transform="translate(-314.216 -212.384)" fill="#fff"/>
      <path id="Path_23137" data-name="Path 23137" d="M272.411,152.31a19.6,19.6,0,0,0,10.909,3.514,21.008,21.008,0,0,0,11.029-3.3s-1.2,6.8-10.823,6.8-11.116-7.015-11.116-7.015" transform="translate(-157.068 -87.819)" fill="#fff"/>
      <path id="Path_23138" data-name="Path 23138" d="M283.527,163.578c-10.319,0-14.5-6.787-15.274-10.375l-2.424-11.287L275,148.932a15.522,15.522,0,0,0,8.324,2.638,16.945,16.945,0,0,0,8.608-2.539l8.339-5.685-1.73,9.922C297.908,156.834,293.961,163.578,283.527,163.578Z" transform="translate(-157.068 -87.819)" fill="#fff"/>
      <path id="Path_23139" data-name="Path 23139" d="M380.893,104.144a2.82,2.82,0,0,1-2.64-2.972,2.649,2.649,0,1,1,2.64,2.972m0-9.559c-3.077,0-5.574,2.984-5.574,6.588,0,3.629,2.5,6.584,5.574,6.584,3.058,0,5.574-2.955,5.574-6.584,0-3.6-2.516-6.588-5.574-6.588" transform="translate(-216.403 -54.536)" fill="#fff"/>
      <path id="Path_23140" data-name="Path 23140" d="M380.893,112.011c-5.419,0-9.828-4.862-9.828-10.838s4.409-10.841,9.828-10.841,9.828,4.863,9.828,10.841S386.312,112.011,380.893,112.011Z" transform="translate(-216.403 -54.536)" fill="#fff"/>
      <path id="Path_23141" data-name="Path 23141" d="M199.48,104.144a2.811,2.811,0,0,1-2.632-2.972,2.657,2.657,0,1,1,2.632,2.972m.049-9.559c-3.1,0-5.591,2.984-5.591,6.588,0,3.629,2.49,6.584,5.591,6.584,3.058,0,5.55-2.955,5.55-6.584,0-3.6-2.492-6.588-5.55-6.588" transform="translate(-111.821 -54.536)" fill="#fff"/>
      <path id="Path_23142" data-name="Path 23142" d="M199.529,112.011c-5.428,0-9.844-4.862-9.844-10.838s4.416-10.841,9.844-10.841c5.406,0,9.8,4.863,9.8,10.841S204.934,112.011,199.529,112.011Z" transform="translate(-111.821 -54.536)" fill="#fff"/>
      <path id="Path_23143" data-name="Path 23143" d="M221.147,189h1.148a5.405,5.405,0,0,0-1.583-3.88A5.508,5.508,0,0,0,211.3,189a5.57,5.57,0,0,0,1.607,3.882,5.513,5.513,0,0,0,7.8,0A5.436,5.436,0,0,0,222.295,189h-2.236a3.414,3.414,0,0,1-.964,2.306A3.243,3.243,0,0,1,213.562,189a3.118,3.118,0,0,1,.952-2.3,3.247,3.247,0,0,1,4.581,0,3.35,3.35,0,0,1,.964,2.3Z" transform="translate(-121.834 -105.807)" fill="#fff"/>
      <path id="Path_23144" data-name="Path 23144" d="M216.789,179.252a9.717,9.717,0,0,1,6.938,2.871,9.369,9.369,0,0,1,1.871,2.627h.951v8.507h-.954a9.756,9.756,0,0,1-8.774,5.5,9.664,9.664,0,0,1-6.976-2.923A9.858,9.858,0,0,1,207.05,189a9.759,9.759,0,0,1,9.739-9.752Z" transform="translate(-121.834 -105.807)" fill="#fff"/>
      <path id="Path_23145" data-name="Path 23145" d="M268.044,267.992h.921a4.775,4.775,0,0,0-1.393-3.452,4.921,4.921,0,0,0-6.912,0,4.62,4.62,0,0,0-1.418,3.452,4.861,4.861,0,1,0,9.722,0H267.1a3.182,3.182,0,0,1-.863,2.154,3.042,3.042,0,0,1-2.141.822,3.221,3.221,0,0,1-2.149-.822,3.187,3.187,0,0,1-.812-2.154,3.117,3.117,0,0,1,.812-2.129,3.169,3.169,0,0,1,2.149-.869,2.992,2.992,0,0,1,2.141.869,3.113,3.113,0,0,1,.863,2.129Z" transform="translate(-149.474 -151.712)" fill="#fff"/>
      <path id="Path_23146" data-name="Path 23146" d="M264.091,258.869a9.169,9.169,0,0,1,6.46,2.635,9.045,9.045,0,0,1,2.667,6.488v4.254h-1.032a8.846,8.846,0,0,1-1.613,2.21,9.231,9.231,0,0,1-6.482,2.659,9.1,9.1,0,0,1-9.1-9.123,8.786,8.786,0,0,1,2.721-6.516A9.071,9.071,0,0,1,264.091,258.869Z" transform="translate(-149.474 -151.712)" fill="#fff"/>
      <path id="Path_23147" data-name="Path 23147" d="M295.1,230.337h1.125a5.388,5.388,0,0,0-5.49-5.467,5.442,5.442,0,0,0-3.882,1.572,5.57,5.57,0,0,0,0,7.812,5.482,5.482,0,0,0,3.882,1.62,5.467,5.467,0,0,0,5.49-5.537h-2.236a3.264,3.264,0,0,1-5.551,2.318,3.344,3.344,0,0,1,0-4.614,3.28,3.28,0,0,1,4.608,0,3.357,3.357,0,0,1,.944,2.3Z" transform="translate(-164.473 -129.656)" fill="#fff"/>
      <path id="Path_23148" data-name="Path 23148" d="M290.736,220.617a9.865,9.865,0,0,1,6.846,2.751,11.191,11.191,0,0,1,1.9,2.715h1v8.507h-.966a10.133,10.133,0,0,1-1.778,2.584,10.013,10.013,0,0,1-7,2.953,9.762,9.762,0,0,1-6.912-2.888,9.822,9.822,0,0,1-.065-13.716A9.786,9.786,0,0,1,290.736,220.617Z" transform="translate(-164.473 -129.656)" fill="#fff"/>
      <path id="Path_23149" data-name="Path 23149" d="M295.1,230.337h1.125a5.388,5.388,0,0,0-5.49-5.467,5.442,5.442,0,0,0-3.882,1.572,5.57,5.57,0,0,0,0,7.812,5.482,5.482,0,0,0,3.882,1.62,5.467,5.467,0,0,0,5.49-5.537h-2.236a3.264,3.264,0,0,1-5.551,2.318,3.344,3.344,0,0,1,0-4.614,3.28,3.28,0,0,1,4.608,0,3.357,3.357,0,0,1,.944,2.3Z" transform="translate(-164.473 -129.656)" fill="#fff"/>
      <path id="Path_23150" data-name="Path 23150" d="M290.736,220.617a9.865,9.865,0,0,1,6.846,2.751,11.191,11.191,0,0,1,1.9,2.715h1v8.507h-.966a10.133,10.133,0,0,1-1.778,2.584,10.013,10.013,0,0,1-7,2.953,9.762,9.762,0,0,1-6.912-2.888,9.822,9.822,0,0,1-.065-13.716A9.786,9.786,0,0,1,290.736,220.617Z" transform="translate(-164.473 -129.656)" fill="#fff"/>
      <path id="Path_23151" data-name="Path 23151" d="M225.495,203.849l-2.03.966,15.849,28.8,1.605-1.842Z" transform="translate(-128.846 -117.536)" fill="#fff"/>
      <path id="Path_23152" data-name="Path 23152" d="M227.282,198.288l18.8,34.035L238.522,241l-20.959-38.086Z" transform="translate(-128.846 -117.536)" fill="#fff"/>
      <path id="Path_23153" data-name="Path 23153" d="M245.731,228.22l-14.876-26.975-2.05.968,15.323,27.869Z" transform="translate(-131.925 -116.035)" fill="#fff"/>
      <path id="Path_23154" data-name="Path 23154" d="M243.354,237.5,222.9,200.3l9.752-4.606,18.233,33.061Z" transform="translate(-131.925 -116.035)" fill="#fff"/>
      <path id="Path_23155" data-name="Path 23155" d="M274.211,254.91l1.855,1.063,7.742-9.139-1.628-1.368Z" transform="translate(-158.106 -141.531)" fill="#fff"/>
      <path id="Path_23156" data-name="Path 23156" d="M277.022,261.424l-9.35-5.36,13.995-16.586,8.147,6.848Z" transform="translate(-158.106 -141.531)" fill="#fff"/>
      <path id="Path_23157" data-name="Path 23157" d="M269,251.38l1.875,1.07,7.961-9.426-1.577-1.379Z" transform="translate(-155.1 -139.328)" fill="#fff"/>
      <path id="Path_23158" data-name="Path 23158" d="M271.841,257.9l-9.4-5.361L276.808,235.6l7.975,6.973Z" transform="translate(-155.1 -139.328)" fill="#fff"/>
      <path id="Path_23159" data-name="Path 23159" d="M362.83,189h-1.148a5.412,5.412,0,0,1,1.583-3.88,5.506,5.506,0,0,1,7.812,7.763A5.489,5.489,0,0,1,361.682,189h2.234a3.422,3.422,0,0,0,.973,2.306,3.177,3.177,0,0,0,2.306.946A3.22,3.22,0,0,0,370.418,189a3.179,3.179,0,0,0-.94-2.3,3.286,3.286,0,0,0-2.283-.945,3.237,3.237,0,0,0-2.306.945,3.357,3.357,0,0,0-.973,2.3Z" transform="translate(-208.54 -105.807)" fill="#fff"/>
      <path id="Path_23160" data-name="Path 23160" d="M367.194,179.252a9.756,9.756,0,0,1,6.922,16.61,9.778,9.778,0,0,1-13.881.01,9.4,9.4,0,0,1-1.855-2.615h-.952v-8.507h.954a9.513,9.513,0,0,1,1.891-2.651A9.737,9.737,0,0,1,367.194,179.252Z" transform="translate(-208.54 -105.807)" fill="#fff"/>
      <path id="Path_23161" data-name="Path 23161" d="M317.657,267.992h-.934a4.778,4.778,0,0,1,1.407-3.452,4.919,4.919,0,0,1,6.91,0,4.61,4.61,0,0,1,1.415,3.452,4.84,4.84,0,0,1-4.851,4.869,4.827,4.827,0,0,1-4.882-4.869H318.6a3.247,3.247,0,0,0,.857,2.154,3.076,3.076,0,0,0,2.143.822,2.812,2.812,0,0,0,2.961-2.975,3.1,3.1,0,0,0-.816-2.129,3.15,3.15,0,0,0-2.145-.869,3.026,3.026,0,0,0-2.143.869,3.177,3.177,0,0,0-.857,2.129Z" transform="translate(-182.617 -151.712)" fill="#fff"/>
      <path id="Path_23162" data-name="Path 23162" d="M321.6,258.869a9.128,9.128,0,0,1,6.408,2.629,8.837,8.837,0,0,1,2.693,6.655,9.086,9.086,0,0,1-2.658,6.3,9.116,9.116,0,0,1-15.579-6.457v-4.254H313.5a8.675,8.675,0,0,1,1.682-2.263A9.125,9.125,0,0,1,321.6,258.869Z" transform="translate(-182.617 -151.712)" fill="#fff"/>
      <path id="Path_23163" data-name="Path 23163" d="M349.7,203.849l2.03.966-15.843,28.8-1.6-1.842Z" transform="translate(-192.744 -117.536)" fill="#fff"/>
      <path id="Path_23164" data-name="Path 23164" d="M347.913,198.287l9.719,4.626-20.955,38.094-7.551-8.687Z" transform="translate(-192.744 -117.536)" fill="#fff"/>
      <path id="Path_23165" data-name="Path 23165" d="M330.17,228.22l14.874-26.975,2.058.968-15.331,27.869Z" transform="translate(-190.37 -116.035)" fill="#fff"/>
      <path id="Path_23166" data-name="Path 23166" d="M332.542,237.506l-7.524-8.753L343.245,195.7l9.768,4.6Z" transform="translate(-190.37 -116.035)" fill="#fff"/>
      <path id="Path_23167" data-name="Path 23167" d="M311.673,254.91l-1.852,1.063-7.742-9.139,1.624-1.368Z" transform="translate(-174.173 -141.531)" fill="#fff"/>
      <path id="Path_23168" data-name="Path 23168" d="M308.865,261.425l-12.789-15.1,8.135-6.856,14,16.588Z" transform="translate(-174.173 -141.531)" fill="#fff"/>
      <path id="Path_23169" data-name="Path 23169" d="M316.561,251.38l-1.877,1.07-7.963-9.426,1.579-1.379Z" transform="translate(-176.85 -139.328)" fill="#fff"/>
      <path id="Path_23170" data-name="Path 23170" d="M313.717,257.9l-12.945-15.324,7.979-6.969,14.371,16.934Z" transform="translate(-176.85 -139.328)" fill="#fff"/>
    </g>
  </g>
  <g id="Group_10237" data-name="Group 10237" transform="translate(49.583 2.018)">
    <g id="Group_10236" data-name="Group 10236" clip-path="url(#clip-path-2)">
      <rect id="Rectangle_6528" data-name="Rectangle 6528" width="28.627" height="107.047" transform="translate(2.57 18.968)" fill="#f5e31d"/>
      <rect id="Rectangle_6529" data-name="Rectangle 6529" width="28.627" height="18.484" transform="translate(2.57 124.825)" fill="#1a1818"/>
      <path id="Path_23171" data-name="Path 23171" d="M221.006,151.591V40.86H190.78V151.591Z" transform="translate(-159.583 -25.577)" fill="#64c4d1"/>
      <rect id="Rectangle_6530" data-name="Rectangle 6530" width="30.226" height="18.484" transform="translate(31.197 124.825)" fill="#9d4090"/>
      <rect id="Rectangle_6531" data-name="Rectangle 6531" width="31.135" height="110.731" transform="translate(61.423 15.283)" fill="#6fb336"/>
      <rect id="Rectangle_6532" data-name="Rectangle 6532" width="31.135" height="18.484" transform="translate(61.423 124.825)" fill="#1a1818"/>
      <rect id="Rectangle_6533" data-name="Rectangle 6533" width="30.461" height="110.731" transform="translate(92.558 15.283)" fill="#9d4090"/>
      <path id="Path_23172" data-name="Path 23172" d="M438.088,151.591l-3.171-104.84L407.64,40.86V151.591Z" transform="translate(-284.621 -25.577)" fill="#e71523"/>
      <rect id="Rectangle_6534" data-name="Rectangle 6534" width="30.449" height="18.484" transform="translate(123.019 124.825)" fill="#1a1818"/>
      <rect id="Rectangle_6535" data-name="Rectangle 6535" width="30.461" height="18.484" transform="translate(92.558 124.825)" fill="#64c4d1"/>
    </g>
  </g>
  <g id="Group_10239" data-name="Group 10239">
    <g id="Group_10238" data-name="Group 10238" clip-path="url(#clip-path)">
      <path id="Path_23174" data-name="Path 23174" d="M272.411,152.31a19.6,19.6,0,0,0,10.909,3.514,21.008,21.008,0,0,0,11.029-3.3s-1.2,6.8-10.823,6.8-11.116-7.015-11.116-7.015" transform="translate(-157.068 -87.819)" fill="#1a1818"/>
      <path id="Path_23175" data-name="Path 23175" d="M249.034,136.643c-11.8,3.837-30.525,7.669-58.21,7.669-28.178,0-47.027-3.952-58.794-7.865a82.5,82.5,0,0,1-12.578-5.325,25.241,25.241,0,0,1-2.718-1.646c.076-4.227.8-20.434,7.464-54.143,3.573-18.151,6.586-30.276,8.787-38.108,4.854-1.3,20.322-4.4,57.839-4.4s53.024,3.1,57.788,4.414c2.2,7.814,5.222,19.939,8.854,38.09,6.634,33.709,7.336,49.916,7.413,54.143-1.816,1.271-6.846,4.154-15.845,7.167M136.2,27.191c3.657-1.032,17.73-4.226,54.625-4.226,22.371,0,36.3,1.139,44.7,2.3,4.2.629,6.963,1.16,8.659,1.609a8.865,8.865,0,0,1,1.272.367c.6,1.554,1.344,3.913,2.378,7.365-6.277-1.52-22.267-4.152-57.011-4.152-34.764,0-50.732,2.677-57.031,4.152,1.009-3.452,1.842-5.832,2.407-7.417M262.1,74.439c-3.992-20.257-7.311-33.068-9.619-40.909a87.234,87.234,0,0,0-3.711-10.773,2.385,2.385,0,0,0-1.245-1.191c-.253-.132-3.212-1.3-11.8-2.508a292.761,292.761,0,0,0-33.8-2.254l-1.075-5.115c17.563-1.477,30.418-3.594,30.367-5.211-.13-1.891-18.361-2.254-40.625-.872-22.325,1.365-40.239,4.012-40.161,5.921.105,1.572,12.807,2.079,30.053,1.405l-.754,3.872a294.884,294.884,0,0,0-33.855,2.254c-8.56,1.208-11.544,2.376-11.776,2.508a2.366,2.366,0,0,0-1.22,1.191,84.512,84.512,0,0,0-3.757,10.773c-2.308,7.841-5.6,20.652-9.6,40.909-7.1,36.178-7.538,52.546-7.538,55.727v.614a2.36,2.36,0,0,0,.88,1.762c.256.2,5.42,4.342,17.708,8.393,12.245,4.107,31.656,8.09,60.246,8.09s47.967-3.984,60.228-8.09c12.294-4.051,17.5-8.191,17.687-8.393a2.237,2.237,0,0,0,.913-1.745v-.63c0-3.2-.4-19.55-7.551-55.727" transform="translate(-64.572 -2.75)" fill="#1a1818"/>
      <path id="Path_23176" data-name="Path 23176" d="M249.034,136.643c-11.8,3.837-30.525,7.669-58.21,7.669-28.178,0-47.027-3.952-58.794-7.865a82.5,82.5,0,0,1-12.578-5.325,25.241,25.241,0,0,1-2.718-1.646c.076-4.227.8-20.434,7.464-54.143,3.573-18.151,6.586-30.276,8.787-38.108,4.854-1.3,20.322-4.4,57.839-4.4s53.024,3.1,57.788,4.414c2.2,7.814,5.222,19.939,8.854,38.09,6.634,33.709,7.336,49.916,7.413,54.143-1.816,1.271-6.846,4.154-15.845,7.167M136.2,27.191c3.657-1.032,17.73-4.226,54.625-4.226,22.371,0,36.3,1.139,44.7,2.3,4.2.629,6.963,1.16,8.659,1.609a8.865,8.865,0,0,1,1.272.367c.6,1.554,1.344,3.913,2.378,7.365-6.277-1.52-22.267-4.152-57.011-4.152-34.764,0-50.732,2.677-57.031,4.152,1.009-3.452,1.842-5.832,2.407-7.417M262.1,74.439c-3.992-20.257-7.311-33.068-9.619-40.909a87.234,87.234,0,0,0-3.711-10.773,2.385,2.385,0,0,0-1.245-1.191c-.253-.132-3.212-1.3-11.8-2.508a292.761,292.761,0,0,0-33.8-2.254l-1.075-5.115c17.563-1.477,30.418-3.594,30.367-5.211-.13-1.891-18.361-2.254-40.625-.872-22.325,1.365-40.239,4.012-40.161,5.921.105,1.572,12.807,2.079,30.053,1.405l-.754,3.872a294.884,294.884,0,0,0-33.855,2.254c-8.56,1.208-11.544,2.376-11.776,2.508a2.366,2.366,0,0,0-1.22,1.191,84.512,84.512,0,0,0-3.757,10.773c-2.308,7.841-5.6,20.652-9.6,40.909-7.1,36.178-7.538,52.546-7.538,55.727v.614a2.36,2.36,0,0,0,.88,1.762c.256.2,5.42,4.342,17.708,8.393,12.245,4.107,31.656,8.09,60.246,8.09s47.967-3.984,60.228-8.09c12.294-4.051,17.5-8.191,17.687-8.393a2.237,2.237,0,0,0,.913-1.745v-.63c0-3.2-.4-19.55-7.551-55.727" transform="translate(-64.572 -2.75)" fill="#1a1818"/>
      <path id="Path_23177" data-name="Path 23177" d="M249.034,136.643c-11.8,3.837-30.525,7.669-58.21,7.669-28.178,0-47.027-3.952-58.794-7.865a82.5,82.5,0,0,1-12.578-5.325,25.241,25.241,0,0,1-2.718-1.646c.076-4.227.8-20.434,7.464-54.143,3.573-18.151,6.586-30.276,8.787-38.108,4.854-1.3,20.322-4.4,57.839-4.4s53.024,3.1,57.788,4.414c2.2,7.814,5.222,19.939,8.854,38.09,6.634,33.709,7.336,49.916,7.413,54.143-1.816,1.271-6.846,4.154-15.845,7.167M136.2,27.191c3.657-1.032,17.73-4.226,54.625-4.226,22.371,0,36.3,1.139,44.7,2.3,4.2.629,6.963,1.16,8.659,1.609a8.865,8.865,0,0,1,1.272.367c.6,1.554,1.344,3.913,2.378,7.365-6.277-1.52-22.267-4.152-57.011-4.152-34.764,0-50.732,2.677-57.031,4.152,1.009-3.452,1.842-5.832,2.407-7.417M262.1,74.439c-3.992-20.257-7.311-33.068-9.619-40.909a87.234,87.234,0,0,0-3.711-10.773,2.385,2.385,0,0,0-1.245-1.191c-.253-.132-3.212-1.3-11.8-2.508a292.761,292.761,0,0,0-33.8-2.254l-1.075-5.115c17.563-1.477,30.418-3.594,30.367-5.211-.13-1.891-18.361-2.254-40.625-.872-22.325,1.365-40.239,4.012-40.161,5.921.105,1.572,12.807,2.079,30.053,1.405l-.754,3.872a294.884,294.884,0,0,0-33.855,2.254c-8.56,1.208-11.544,2.376-11.776,2.508a2.366,2.366,0,0,0-1.22,1.191,84.512,84.512,0,0,0-3.757,10.773c-2.308,7.841-5.6,20.652-9.6,40.909-7.1,36.178-7.538,52.546-7.538,55.727v.614a2.36,2.36,0,0,0,.88,1.762c.256.2,5.42,4.342,17.708,8.393,12.245,4.107,31.656,8.09,60.246,8.09s47.967-3.984,60.228-8.09c12.294-4.051,17.5-8.191,17.687-8.393a2.237,2.237,0,0,0,.913-1.745v-.63c0-3.2-.4-19.55-7.551-55.727" transform="translate(-64.572 -2.75)" fill="#1a1818"/>
      <path id="Path_23178" data-name="Path 23178" d="M380.893,104.144a2.82,2.82,0,0,1-2.64-2.972,2.649,2.649,0,1,1,2.64,2.972m0-9.559c-3.077,0-5.574,2.984-5.574,6.588,0,3.629,2.5,6.584,5.574,6.584,3.058,0,5.574-2.955,5.574-6.584,0-3.6-2.516-6.588-5.574-6.588" transform="translate(-216.403 -54.536)" fill="#1a1818"/>
      <path id="Path_23179" data-name="Path 23179" d="M199.48,104.144a2.811,2.811,0,0,1-2.632-2.972,2.657,2.657,0,1,1,2.632,2.972m.049-9.559c-3.1,0-5.591,2.984-5.591,6.588,0,3.629,2.49,6.584,5.591,6.584,3.058,0,5.55-2.955,5.55-6.584,0-3.6-2.492-6.588-5.55-6.588" transform="translate(-111.821 -54.536)" fill="#1a1818"/>
      <path id="Path_23180" data-name="Path 23180" d="M221.147,189h1.148a5.405,5.405,0,0,0-1.583-3.88A5.508,5.508,0,0,0,211.3,189a5.57,5.57,0,0,0,1.607,3.882,5.513,5.513,0,0,0,7.8,0A5.436,5.436,0,0,0,222.295,189h-2.236a3.414,3.414,0,0,1-.964,2.306A3.243,3.243,0,0,1,213.562,189a3.118,3.118,0,0,1,.952-2.3,3.247,3.247,0,0,1,4.581,0,3.35,3.35,0,0,1,.964,2.3Z" transform="translate(-121.834 -105.807)" fill="#1a1818"/>
      <path id="Path_23181" data-name="Path 23181" d="M268.044,267.992h.921a4.775,4.775,0,0,0-1.393-3.452,4.921,4.921,0,0,0-6.912,0,4.62,4.62,0,0,0-1.418,3.452,4.861,4.861,0,1,0,9.722,0H267.1a3.182,3.182,0,0,1-.863,2.154,3.042,3.042,0,0,1-2.141.822,3.221,3.221,0,0,1-2.149-.822,3.187,3.187,0,0,1-.812-2.154,3.117,3.117,0,0,1,.812-2.129,3.169,3.169,0,0,1,2.149-.869,2.992,2.992,0,0,1,2.141.869,3.113,3.113,0,0,1,.863,2.129Z" transform="translate(-149.474 -151.712)" fill="#1a1818"/>
      <path id="Path_23182" data-name="Path 23182" d="M295.1,230.337h1.125a5.388,5.388,0,0,0-5.49-5.467,5.442,5.442,0,0,0-3.882,1.572,5.57,5.57,0,0,0,0,7.812,5.482,5.482,0,0,0,3.882,1.62,5.467,5.467,0,0,0,5.49-5.537h-2.236a3.264,3.264,0,0,1-5.551,2.318,3.344,3.344,0,0,1,0-4.614,3.28,3.28,0,0,1,4.608,0,3.357,3.357,0,0,1,.944,2.3Z" transform="translate(-164.473 -129.656)" fill="#1a1818"/>
      <path id="Path_23183" data-name="Path 23183" d="M295.1,230.337h1.125a5.388,5.388,0,0,0-5.49-5.467,5.442,5.442,0,0,0-3.882,1.572,5.57,5.57,0,0,0,0,7.812,5.482,5.482,0,0,0,3.882,1.62,5.467,5.467,0,0,0,5.49-5.537h-2.236a3.264,3.264,0,0,1-5.551,2.318,3.344,3.344,0,0,1,0-4.614,3.28,3.28,0,0,1,4.608,0,3.357,3.357,0,0,1,.944,2.3Z" transform="translate(-164.473 -129.656)" fill="#1a1818"/>
      <path id="Path_23184" data-name="Path 23184" d="M225.495,203.849l-2.03.966,15.849,28.8,1.605-1.842Z" transform="translate(-128.846 -117.536)" fill="#1a1818"/>
      <path id="Path_23185" data-name="Path 23185" d="M245.731,228.22l-14.876-26.975-2.05.968,15.323,27.869Z" transform="translate(-131.925 -116.035)" fill="#1a1818"/>
      <path id="Path_23186" data-name="Path 23186" d="M274.211,254.91l1.855,1.063,7.742-9.139-1.628-1.368Z" transform="translate(-158.106 -141.531)" fill="#1a1818"/>
      <path id="Path_23187" data-name="Path 23187" d="M269,251.38l1.875,1.07,7.961-9.426-1.577-1.379Z" transform="translate(-155.1 -139.328)" fill="#1a1818"/>
      <path id="Path_23188" data-name="Path 23188" d="M362.83,189h-1.148a5.412,5.412,0,0,1,1.583-3.88,5.506,5.506,0,0,1,7.812,7.763A5.489,5.489,0,0,1,361.682,189h2.234a3.422,3.422,0,0,0,.973,2.306,3.177,3.177,0,0,0,2.306.946A3.22,3.22,0,0,0,370.418,189a3.179,3.179,0,0,0-.94-2.3,3.286,3.286,0,0,0-2.283-.945,3.237,3.237,0,0,0-2.306.945,3.357,3.357,0,0,0-.973,2.3Z" transform="translate(-208.54 -105.807)" fill="#1a1818"/>
      <path id="Path_23189" data-name="Path 23189" d="M317.657,267.992h-.934a4.778,4.778,0,0,1,1.407-3.452,4.919,4.919,0,0,1,6.91,0,4.61,4.61,0,0,1,1.415,3.452,4.84,4.84,0,0,1-4.851,4.869,4.827,4.827,0,0,1-4.882-4.869H318.6a3.247,3.247,0,0,0,.857,2.154,3.076,3.076,0,0,0,2.143.822,2.812,2.812,0,0,0,2.961-2.975,3.1,3.1,0,0,0-.816-2.129,3.15,3.15,0,0,0-2.145-.869,3.026,3.026,0,0,0-2.143.869,3.177,3.177,0,0,0-.857,2.129Z" transform="translate(-182.617 -151.712)" fill="#1a1818"/>
      <path id="Path_23190" data-name="Path 23190" d="M349.7,203.849l2.03.966-15.843,28.8-1.6-1.842Z" transform="translate(-192.744 -117.536)" fill="#1a1818"/>
      <path id="Path_23191" data-name="Path 23191" d="M330.17,228.22l14.874-26.975,2.058.968-15.331,27.869Z" transform="translate(-190.37 -116.035)" fill="#1a1818"/>
      <path id="Path_23192" data-name="Path 23192" d="M311.673,254.91l-1.852,1.063-7.742-9.139,1.624-1.368Z" transform="translate(-174.173 -141.531)" fill="#1a1818"/>
      <path id="Path_23193" data-name="Path 23193" d="M316.561,251.38l-1.877,1.07-7.963-9.426,1.579-1.379Z" transform="translate(-176.85 -139.328)" fill="#1a1818"/>
    </g>
  </g>
</svg>
